<?xml version="1.0" encoding="utf-8"?>
<!-- Generator: Adobe Illustrator 24.1.1, SVG Export Plug-In . SVG Version: 6.00 Build 0)  -->
<svg version="1.0" id="Layer" xmlns="http://www.w3.org/2000/svg" xmlns:xlink="http://www.w3.org/1999/xlink" x="0px" y="0px"
	 viewBox="0 0 1513.7 1186.67" enable-background="new 0 0 1513.7 1186.67" xml:space="preserve">
<ellipse opacity="0.4" fill="#CEB991" cx="753.27" cy="593.56" rx="734.67" ry="432.07"/>
<path opacity="0.2" fill="#70737C" d="M558.31,209.34h91.56v-44.79c-1.95,0.12-3.92,0.22-5.86,0.34v38.7H474.53v-17.39
	c-1.77,0.35-3.55,0.68-5.31,1.03v16.36H399.8c-7.85,2.15-15.56,4.38-23.16,6.68v50.07H250.49c-2.96,1.52-5.86,3.06-8.77,4.61
	l316.58,0.7V209.34z M551.43,260.35H381.95V208.9h169.48V260.35z"/>
<g opacity="0.4">
	<path opacity="0.2" fill="#70737C" d="M1012.6,640.06h355.7V339.45c-1.6-1.45-3.18-2.9-4.81-4.34v300.14h-346.08v-451l-4.81-0.54
		V640.06z"/>
	<path opacity="0.2" fill="#70737C" d="M1022.22,630.44h336.46V331.01c-4.54-3.87-9.18-7.71-13.96-11.48V602.7h-308.5V220.8h121.05
		c-28.17-9.74-58.06-18.41-89.7-25.91h-45.36V630.44z"/>
	<polygon opacity="0.2" fill="#70737C" points="1057.32,472.61 1057.32,482.56 1057.32,580.33 1075.67,580.33 1075.67,482.56 
		1075.67,472.61 1075.67,243.89 1057.32,243.89 	"/>
	<rect x="1084.7" y="446.03" opacity="0.2" fill="#70737C" width="18.35" height="134.3"/>
	<polygon opacity="0.2" fill="#70737C" points="1112.07,373.69 1112.07,403 1112.07,580.33 1130.42,580.33 1130.42,403 
		1130.42,373.69 1130.42,276.94 1112.07,276.94 	"/>
	<polygon opacity="0.2" fill="#70737C" points="1139.45,557.64 1139.45,562.12 1139.45,580.33 1157.8,580.33 1157.8,562.12 
		1157.8,557.64 1157.8,415.36 1139.45,415.36 	"/>
	<rect x="1166.83" y="444.59" opacity="0.2" fill="#70737C" width="18.35" height="135.74"/>
	<rect x="1194.21" y="513.11" opacity="0.2" fill="#70737C" width="18.35" height="67.22"/>
	<polygon opacity="0.2" fill="#70737C" points="1239.93,555.51 1239.93,444.88 1221.58,444.88 1221.58,555.51 1221.58,580.33 
		1239.93,580.33 	"/>
	<polygon opacity="0.2" fill="#70737C" points="1267.31,552.95 1267.31,511.69 1248.96,511.69 1248.96,552.95 1248.96,580.33 
		1267.31,580.33 	"/>
	<polygon opacity="0.2" fill="#70737C" points="1294.69,562.91 1294.69,536.66 1276.34,536.66 1276.34,562.91 1276.34,580.33 
		1294.69,580.33 	"/>
	<polygon opacity="0.2" fill="#70737C" points="1322.06,570.52 1322.06,555.77 1303.71,555.77 1303.71,570.52 1303.71,580.33 
		1322.06,580.33 	"/>
</g>
<g>
	<g>
		<path fill="#BDC3C3" d="M944.98,653.68c0,106.15-116.24,143.13-193.03,143.13c-76.79,0-193.03-36.98-193.03-143.13
			c0-106.15,116.24-301.26,193.03-301.26C828.74,352.42,944.98,547.53,944.98,653.68z"/>
	</g>
	<path fill="#2E2C70" d="M850.48,770.81c-11.91,4.7-24.21,8.42-36.49,11.23c2.15,6.25,5.29,15.36,9.13,26.52l-67.3,43.94
		l-70.17-45.81c3.48-10.12,6.35-18.44,8.37-24.33c-12.28-2.74-24.6-6.36-36.53-10.98c-6.13,23.43-79.31,303.18-79.11,308.09
		c0.2,5.12,6.4,4.98,6.4,4.98s6.1,0.99,7.21-4.04c0.45-2.05,18.1-53.72,38.82-114.15l125.01-81.62l120.48,78.65
		c21.16,61.7,39.38,115.03,39.84,117.11c1.11,5.03,7.21,4.04,7.21,4.04s6.2,0.14,6.4-4.98
		C929.95,1074.53,855.47,789.88,850.48,770.81z M862.08,921.86l-81.63-53.29l51.71-33.76C840.91,860.25,851.45,890.92,862.08,921.86
		z M824.62,812.92c1.87,5.45,3.9,11.32,6.04,17.55l-54.29,35.45l-16.46-10.74L824.62,812.92z M751.74,855.17l-16.46,10.75
		l-57.16-37.32c2.15-6.25,4.17-12.12,6.04-17.55L751.74,855.17z M676.62,832.95l54.58,35.63l-86.16,56.26
		C656.27,892.13,667.47,859.54,676.62,832.95z M633.18,959.39c3.13-9.12,6.31-18.39,9.5-27.69l92.6-60.46l16.46,10.74L633.18,959.39
		z M755.82,879.32l-16.46-10.74l16.46-10.75l16.46,10.74L755.82,879.32z M759.91,881.99l16.46-10.75l88.08,57.51
		c3.19,9.29,6.37,18.56,9.5,27.69L759.91,881.99z"/>
</g>
<g>
	
		<linearGradient id="SVGID_1_" gradientUnits="userSpaceOnUse" x1="791.4158" y1="365.2738" x2="791.4158" y2="330.3864" gradientTransform="matrix(-1 0 0 1 1485.1555 0)">
		<stop  offset="0" style="stop-color:#E2AD9A"/>
		<stop  offset="0.1432" style="stop-color:#E7B3A0"/>
		<stop  offset="0.6371" style="stop-color:#F5C5AF"/>
		<stop  offset="1" style="stop-color:#FCCDB5"/>
	</linearGradient>
	<path fill-rule="evenodd" clip-rule="evenodd" fill="url(#SVGID_1_)" d="M702.29,330.39v34.89c-9.48-0.2-17.11-7.91-17.11-17.44
		C685.19,338.31,692.81,330.59,702.29,330.39z"/>
	<g>
		<linearGradient id="SVGID_2_" gradientUnits="userSpaceOnUse" x1="815.1297" y1="365.2738" x2="815.1297" y2="330.3864">
			<stop  offset="0" style="stop-color:#E2AD9A"/>
			<stop  offset="0.1432" style="stop-color:#E7B3A0"/>
			<stop  offset="0.6371" style="stop-color:#F5C5AF"/>
			<stop  offset="1" style="stop-color:#FCCDB5"/>
		</linearGradient>
		<path fill-rule="evenodd" clip-rule="evenodd" fill="url(#SVGID_2_)" d="M806.58,330.39v34.89c9.48-0.2,17.11-7.91,17.11-17.44
			C823.68,338.31,816.06,330.59,806.58,330.39z"/>
		<g>
			<linearGradient id="SVGID_3_" gradientUnits="userSpaceOnUse" x1="753.2115" y1="467.4933" x2="753.2115" y2="397.537">
				<stop  offset="0" style="stop-color:#FCCDB5"/>
				<stop  offset="0.3661" style="stop-color:#F7C8B1"/>
				<stop  offset="0.7287" style="stop-color:#EDBBA6"/>
				<stop  offset="1" style="stop-color:#E2AD9A"/>
			</linearGradient>
			<path fill="url(#SVGID_3_)" d="M786.92,397.54c-8.62,9.51-20.28,17.74-33.71,17.74l0,0c-13.43,0-24.97-8.11-33.58-17.62v22.94
				c-2.15,2.15-6.84,4.69-10.9,6.97c0,0,0,0.51,0,1.27c3.42,11.91,12.93,38.65,44.48,38.65c31.68,0,41.19-26.74,44.48-38.65
				c0-0.76,0-1.27,0-1.27c-4.06-2.28-8.74-4.82-10.9-6.97v-23.07H786.92z"/>
			<g>
				<g>
					<path fill="#592F40" d="M812.52,254.58c2.03-3.17,4.06-8.62,3.55-17.62c0,0-5.7,3.55-11.79,4.06c0,0,5.58-1.77,5.96-11.66
						c-0.13,0.76-1.77,4.44-20.53,4.82c-9.38-4.18-21.29-6.72-36.63-6.72c-102.78,0-55.64,132.94-55.64,132.94
						c-0.76-31.3,0.62-64.92,0.62-64.92c12.55,7.48,55.02,6.14,55.02,6.14s43.64,1.33,56.19-6.14c0,0,0.33,32.6-0.43,63.91
						C808.72,359.52,831.15,287.53,812.52,254.58z"/>
					<path fill="#FCCDB5" d="M808.85,359.39c0.76-31.3,0.43-63.91,0.43-63.91c-12.55,7.48-56.19,6.14-56.19,6.14
						s-42.47,1.33-55.02-6.14c0,0-1.27,31.04-0.69,61.24c0.25,2,0.39,3.35,0.33,3.81c1.27,10.27,2.66,18.38,4.44,21.92
						c7.1,14.7,26.23,40.43,51.2,40.43s44.1-25.73,51.2-40.43c1.84-3.9,3.46-13.03,4.69-24.42
						C808.98,358.9,808.84,359.4,808.85,359.39z"/>
					<path fill="#846043" d="M810.24,229.24v0.13C810.24,229.24,810.24,229.24,810.24,229.24z"/>
				</g>
			</g>
			<path fill="#B4DDC0" d="M889.07,465.97c-10.66-14.42-86.43-34.6-89.35-36.88c-0.38-0.38-0.89-0.89-1.52-1.52
				c-0.22,0.85-0.53,1.72-0.89,2.6c-1.98,6.82-5.84,17.34-13.97,25.5c-8.27,17.7-15.6,40.46-21,62.66c-2.33,9.56-15.8,9.56-18.13,0
				c-5.4-22.18-12.71-44.91-20.97-62.61c-8.7-8.7-12.58-20.16-14.51-26.89c0-0.05,0-0.08,0-0.13c-0.13-0.38-0.28-0.77-0.38-1.14
				c-0.63,0.63-1.14,1.14-1.52,1.52c-2.91,2.28-93.03,27.54-97.32,44.85c-8.33,33.55-4.7,213-4.7,213H904.4
				C902.24,652.73,913.58,499.15,889.07,465.97z"/>
			<g>
				<path fill="#FFFFFF" d="M709.76,432.2c-0.08-0.26-0.18-0.54-0.26-0.79C709.58,431.66,709.68,431.93,709.76,432.2z"/>
				<path fill="#FFFFFF" d="M794.3,438.73c-0.18,0.42-0.37,0.85-0.56,1.27C793.93,439.58,794.13,439.15,794.3,438.73z"/>
				<path fill="#FFFFFF" d="M723.24,455.73c8.26,17.69,15.57,40.42,20.97,62.61c2.33,9.56,15.8,9.56,18.13,0
					c5.4-22.21,12.73-44.96,21-62.66c0.06-0.06,0.12-0.14,0.18-0.2c-6.69,6.79-16.28,11.97-30.15,12.01c-0.01,0-0.02,0.01-0.03,0.01
					c-0.01,0-0.01,0-0.02-0.01c-0.04,0-0.07,0.01-0.11,0.01C739.48,467.49,729.93,462.43,723.24,455.73
					C723.24,455.73,723.24,455.73,723.24,455.73z"/>
				<path fill="#FFFFFF" d="M792.9,441.82c-0.22,0.45-0.45,0.9-0.68,1.35C792.46,442.72,792.69,442.27,792.9,441.82z"/>
				<path fill="#FFFFFF" d="M786.43,452.2c-0.09,0.11-0.17,0.23-0.26,0.34C786.26,452.43,786.33,452.32,786.43,452.2z"/>
				<path fill="#FFFFFF" d="M791.24,445.02c-0.25,0.44-0.5,0.88-0.76,1.32C790.74,445.9,790.99,445.46,791.24,445.02z"/>
				<path fill="#FFFFFF" d="M789.22,448.33c-0.25,0.38-0.49,0.76-0.75,1.14C788.73,449.1,788.97,448.72,789.22,448.33z"/>
				<path fill="#FFFFFF" d="M795.69,435.15c-0.18,0.51-0.38,1.03-0.58,1.55C795.31,436.17,795.51,435.66,795.69,435.15z"/>
				<path fill="#FFFFFF" d="M708.73,428.71c0-0.07,0-0.14,0-0.21c-0.08-0.31-0.18-0.63-0.25-0.93c-0.04,0.04-0.06,0.06-0.09,0.09
					C708.48,428.01,708.61,428.36,708.73,428.71z"/>
				<path fill="#FFFFFF" d="M717.73,449.02c-0.22-0.32-0.41-0.64-0.62-0.96C717.32,448.38,717.52,448.7,717.73,449.02z"/>
				<path fill="#FFFFFF" d="M720.24,452.4c-0.12-0.14-0.21-0.29-0.33-0.43C720.03,452.11,720.13,452.26,720.24,452.4z"/>
				<path fill="#FFFFFF" d="M710.86,435.35c-0.13-0.34-0.26-0.7-0.38-1.03C710.59,434.66,710.73,435.01,710.86,435.35z"/>
				<path fill="#FFFFFF" d="M712.16,438.65c-0.16-0.38-0.33-0.77-0.48-1.15C711.84,437.89,712,438.27,712.16,438.65z"/>
				<path fill="#FFFFFF" d="M713.72,442.07c-0.19-0.4-0.38-0.79-0.57-1.18C713.34,441.28,713.53,441.67,713.72,442.07z"/>
				<path fill="#FFFFFF" d="M715.57,445.55c-0.22-0.38-0.42-0.76-0.63-1.13C715.15,444.8,715.35,445.17,715.57,445.55z"/>
			</g>
		</g>
		<g>
			<path fill="#7DA7D9" d="M776.92,336.79C776.92,336.79,776.92,336.79,776.92,336.79c-0.01,2.52-2.05,4.57-4.58,4.57
				c0,0,0,0,0,0.01c0,2.53,2.05,4.58,4.58,4.58c2.53,0,4.58-2.05,4.58-4.58C781.5,338.84,779.45,336.79,776.92,336.79z"/>
			<path fill="#7DA7D9" d="M714.03,336.79C714.03,336.79,714.03,336.79,714.03,336.79c-0.01,2.52-2.05,4.57-4.58,4.57
				c0,0,0,0,0,0.01c0,2.53,2.05,4.58,4.58,4.58c2.53,0,4.58-2.05,4.58-4.58C718.61,338.84,716.56,336.79,714.03,336.79z"/>
		</g>
		<g>
			<path fill="#592F40" d="M795.06,316.15h-23.61c-1.19,0-2.16,0.97-2.16,2.16c0,1.19,0.97,2.16,2.16,2.16h23.61
				c1.19,0,2.16-0.97,2.16-2.16C797.22,317.12,796.25,316.15,795.06,316.15z"/>
			<path fill="#592F40" d="M737.58,320.48c1.19,0,2.16-0.97,2.16-2.16c0-1.19-0.97-2.16-2.16-2.16h-23.61
				c-1.19,0-2.16,0.97-2.16,2.16c0,1.19,0.97,2.16,2.16,2.16H737.58z"/>
			<path fill="#FFFFFF" d="M781.34,380.45c-5.78,8.77-16.93,13.35-27.5,13.38c-10.58,0.08-21.66-4.29-27.85-12.73
				c8.7,5.48,18.2,8.02,27.83,7.97C763.43,389.03,772.93,386.37,781.34,380.45z"/>
			<path fill="#FBBEA7" d="M742.05,370.41c0.08,2.58,1.49,8.21,7.02,8.06l-0.12-22.31C741.3,364.48,742.05,370.41,742.05,370.41z"/>
			<g>
				<g opacity="0.3">
					<polygon fill="#FFFFFF" points="716.41,326.77 730.44,354.27 741.11,354.33 726.51,326.77 					"/>
					<polygon fill="#FFFFFF" points="782.08,326.77 796.12,354.27 807.23,354.24 792.19,326.77 					"/>
				</g>
				<path fill="#2E2C70" d="M800.89,323.99H769.2c-4.38,0-7.94,3.56-7.94,7.94v7.49l-13.57-0.17v-7.32c0-4.38-3.56-7.94-7.94-7.94
					h-31.69c-4.38,0-7.94,3.56-7.94,7.94v17.47c0,4.38,3.56,7.94,7.94,7.94h31.69c4.38,0,7.94-3.56,7.94-7.94v-7l13.57,0.17v6.83
					c0,4.38,3.56,7.94,7.94,7.94h31.69c4.38,0,7.94-3.56,7.94-7.94v-17.47C808.83,327.55,805.27,323.99,800.89,323.99z
					 M744.65,349.4c0,2.7-2.2,4.9-4.9,4.9h-31.69c-2.7,0-4.9-2.2-4.9-4.9v-17.47c0-2.7,2.2-4.9,4.9-4.9h31.69c2.7,0,4.9,2.2,4.9,4.9
					V349.4z M805.79,349.4c0,2.7-2.19,4.9-4.9,4.9H769.2c-2.7,0-4.9-2.2-4.9-4.9v-17.47c0-2.7,2.2-4.9,4.9-4.9h31.69
					c2.7,0,4.9,2.2,4.9,4.9V349.4z"/>
			</g>
		</g>
		<path opacity="0.2" fill="#FFFFFF" d="M744.65,349.4c0,2.7-2.2,4.9-4.9,4.9h-31.69c-2.7,0-4.9-2.2-4.9-4.9v-17.47
			c0-2.7,2.2-4.9,4.9-4.9h31.69c2.7,0,4.9,2.2,4.9,4.9V349.4z"/>
		<path opacity="0.2" fill="#FFFFFF" d="M805.79,349.4c0,2.7-2.19,4.9-4.9,4.9H769.2c-2.7,0-4.9-2.2-4.9-4.9v-17.47
			c0-2.7,2.2-4.9,4.9-4.9h31.69c2.7,0,4.9,2.2,4.9,4.9V349.4z"/>
	</g>
	<path fill="#2E2C70" d="M758.67,485.31l9.67-20.27c-4.35,1.5-9.28,2.42-14.97,2.44c-0.01,0-0.02,0.01-0.03,0.01
		c-0.01,0-0.01,0-0.02-0.01c-0.04,0-0.07,0.01-0.11,0.01c-6.63,0-12.27-1.2-17.1-3.18l10.99,21l-9.57,202.97l17.77,18.5l16.52-19.37
		L758.67,485.31z"/>
</g>
<g>
	<g>
		<path fill="#BDC3C3" d="M79.44,1084.07h1319.15c3.24,0,5.87,2.63,5.87,5.87c0,3.24-2.63,5.87-5.87,5.87H79.44
			c-3.24,0-5.87-2.63-5.87-5.87C73.57,1086.7,76.2,1084.07,79.44,1084.07z"/>
	</g>
	<g>
		<path fill="#BDC3C3" d="M1423.75,1084.07h26.84c3.24,0,5.87,2.63,5.87,5.87c0,3.24-2.63,5.87-5.87,5.87h-26.84
			c-3.24,0-5.87-2.63-5.87-5.87C1417.88,1086.7,1420.51,1084.07,1423.75,1084.07z"/>
	</g>
	<g>
		<path fill="#BDC3C3" d="M55.98,1084.06c1.57,0,3.04,0.62,4.14,1.71c1.09,1.14,1.71,2.62,1.71,4.19c0,1.52-0.62,3.04-1.71,4.13
			c-2.19,2.19-6.09,2.19-8.32,0c-1.1-1.09-1.71-2.61-1.71-4.13c0-1.57,0.62-3.05,1.71-4.19
			C52.93,1084.68,54.41,1084.06,55.98,1084.06z"/>
	</g>
</g>
<g>
	<path fill-rule="evenodd" clip-rule="evenodd" fill="#44C8F5" d="M622.23,726.31c0,0,10.26,40.98,35.72,40.98h194.47
		c24.87,0,31.88-43.43,32.17-40.98H622.23z"/>
</g>
<g opacity="0.5">
	<path fill-rule="evenodd" clip-rule="evenodd" fill="#1268B3" d="M622.39,725.62c0,0,9.94,40.96,35.4,41.09l194.46,1.16
		c24.87,0.13,32.21-43.31,32.49-40.86L622.39,725.62z"/>
</g>
<path fill="#44C8F5" d="M740.32,762.33c-1.82-22.49-20.75-40.33-43.69-40.33h-3.14c-21.28,0-39.13,15.37-43.05,35.55v264.59
	c0,2.55,0.52,4.9,1.39,7.08h87.08c0.87-2.18,1.39-4.53,1.39-7.08l0.18-256.27C740.5,764.67,740.42,763.5,740.32,762.33z"/>
<path fill="#44C8F5" d="M859.46,762.33c-1.82-22.49-20.75-40.33-43.69-40.33h-3.14c-21.28,0-39.13,15.37-43.05,35.55v264.59
	c0,2.55,0.52,4.9,1.39,7.08h87.08c0.87-2.18,1.39-4.53,1.39-7.08l0.18-256.27C859.64,764.67,859.56,763.5,859.46,762.33z"/>
<g>
	<g>
		<g>
			<g>
				<rect x="1076.21" y="870.42" fill="#2E2C70" width="198.55" height="19.92"/>
			</g>
			<path fill="#DFE5E6" d="M1089.54,890.34v168.27c0,13.53,10.99,24.51,24.52,24.51h122.84c13.53,0,24.51-10.98,24.51-24.51V890.34
				H1089.54z"/>
		</g>
	</g>
	<path opacity="0.4" fill="#BDC3C3" d="M1258.89,1047.3l2.59-2.67v-5.59l-5.29,5.47l-13.56-14.02l13.56-14.02l5.29,5.47v-5.59
		l-2.59-2.67l2.59-2.67v-5.59l-5.29,5.47l-13.57-14.02l13.57-14.02l5.29,5.47v-5.59l-2.59-2.67l2.59-2.67v-5.59l-5.29,5.47
		l-13.56-14.02l13.56-14.02l5.29,5.47v-5.59l-2.58-2.67l2.58-2.67v-5.59l-5.29,5.47l-13.57-14.02l13.57-14.02l5.29,5.47v-5.59
		l-2.58-2.67l2.58-2.67v-5.59l-5.29,5.47l-13.56-14.02l5.47-5.65h-5.41l-2.76,2.85l-2.76-2.85h-5.41l5.47,5.65l-13.57,14.02
		l-13.57-14.02l5.47-5.65h-5.41l-2.76,2.86l-2.76-2.86h-5.41l5.47,5.65l-13.56,14.02l-13.56-14.02l5.47-5.65h-5.41l-2.76,2.86
		l-2.76-2.86h-5.41l5.47,5.65l-13.56,14.02L1145,895.99l5.47-5.65h-5.41l-2.76,2.86l-2.76-2.86h-5.41l5.47,5.65l-13.57,14.02
		l-13.57-14.02l5.47-5.65h-5.41l-2.76,2.85l-2.76-2.85h-5.41l5.47,5.65l-13.56,14.02l-3.88-4.01v5.59l1.18,1.22l-1.18,1.22v5.59
		l3.88-4.01l13.57,14.02l-13.57,14.02l-3.88-4.01v5.59l1.18,1.22l-1.18,1.22v5.59l3.88-4.01l13.56,14.02l-13.56,14.02l-3.88-4.01
		v5.59l1.18,1.22l-1.18,1.22v5.59l3.88-4.01l13.57,14.02l-13.57,14.02l-3.88-4.01v5.59l1.18,1.22l-1.18,1.22v5.59l3.88-4.01
		l13.56,14.02l-13.56,14.02l-3.88-4.01v5.59l1.18,1.22l-1.18,1.22v5.59l3.88-4.01l13.56,14.02l-10.81,11.17
		c0.89,0.95,1.87,1.8,2.89,2.6l10.62-10.97l13.57,14.02l-2.13,2.2h9.67l-2.13-2.2l13.56-14.02l13.56,14.02l-2.13,2.2h9.66l-2.13-2.2
		l13.57-14.02l13.57,14.02l-2.13,2.2h9.66l-2.13-2.2l13.56-14.02l13.56,14.02l-2.13,2.2h9.67l-2.13-2.2l13.57-14.02l11.25,11.62
		c1.06-0.76,2.08-1.57,3.01-2.48l-11.55-11.93l13.56-14.02l5.29,5.47v-5.59L1258.89,1047.3z M1253.48,1013.68l-13.56,14.02
		l-13.57-14.02l13.56-14.02L1253.48,1013.68z M1158.56,982.85l13.56,14.02l-13.57,14.02L1145,996.87L1158.56,982.85z
		 M1142.29,994.07l-13.56-14.02l13.57-14.02l13.56,14.02L1142.29,994.07z M1161.27,980.05l13.57-14.02l13.56,14.02l-13.56,14.02
		L1161.27,980.05z M1191.1,982.85l13.57,14.02l-13.57,14.02l-13.57-14.02L1191.1,982.85z M1193.81,980.05l13.56-14.02l13.57,14.02
		l-13.56,14.02L1193.81,980.05z M1223.64,982.85l13.56,14.02l-13.56,14.02l-13.56-14.02L1223.64,982.85z M1210.08,963.24
		l13.56-14.02l13.57,14.02l-13.57,14.02L1210.08,963.24z M1207.37,960.44l-13.56-14.02l13.56-14.02l13.57,14.02L1207.37,960.44z
		 M1204.67,963.24l-13.56,14.02l-13.56-14.02l13.57-14.02L1204.67,963.24z M1174.83,960.44l-13.57-14.02l13.57-14.02l13.57,14.02
		L1174.83,960.44z M1172.13,963.24l-13.56,14.02L1145,963.24l13.56-14.02L1172.13,963.24z M1142.29,960.44l-13.56-14.02l13.56-14.02
		l13.56,14.02L1142.29,960.44z M1139.59,963.24l-13.57,14.02l-13.57-14.02l13.57-14.02L1139.59,963.24z M1139.59,996.87
		l-13.56,14.02l-13.56-14.02l13.56-14.02L1139.59,996.87z M1139.59,1030.49l-13.57,14.02l-13.56-14.02l13.57-14.02L1139.59,1030.49z
		 M1128.73,1013.68l13.56-14.02l13.56,14.02l-13.56,14.02L1128.73,1013.68z M1158.56,1016.47l13.57,14.02l-13.56,14.02l-13.57-14.02
		L1158.56,1016.47z M1161.27,1013.68l13.57-14.02l13.57,14.02l-13.57,14.02L1161.27,1013.68z M1191.1,1016.47l13.56,14.02
		l-13.57,14.02l-13.56-14.02L1191.1,1016.47z M1193.81,1013.68l13.57-14.02l13.56,14.02l-13.57,14.02L1193.81,1013.68z
		 M1223.64,1016.47l13.57,14.02l-13.56,14.02l-13.57-14.02L1223.64,1016.47z M1253.48,980.05l-13.57,14.02l-13.56-14.02l13.57-14.02
		L1253.48,980.05z M1253.48,946.43l-13.57,14.02l-13.57-14.02l13.56-14.02L1253.48,946.43z M1239.91,898.78l13.57,14.02
		l-13.57,14.02l-13.56-14.02L1239.91,898.78z M1237.21,929.62l-13.57,14.02l-13.56-14.02l13.56-14.02L1237.21,929.62z
		 M1207.37,898.79l13.57,14.02l-13.57,14.02l-13.57-14.02L1207.37,898.79z M1204.67,929.62l-13.56,14.02l-13.57-14.02l13.56-14.02
		L1204.67,929.62z M1174.83,898.79l13.56,14.02l-13.56,14.02l-13.56-14.02L1174.83,898.79z M1172.13,929.61l-13.56,14.02
		L1145,929.62l13.57-14.02L1172.13,929.61z M1142.29,898.79l13.56,14.02l-13.57,14.02l-13.56-14.02L1142.29,898.79z M1139.59,929.62
		l-13.57,14.02l-13.56-14.02l13.56-14.02L1139.59,929.62z M1096.19,912.8l13.56-14.02l13.57,14.02l-13.56,14.02L1096.19,912.8z
		 M1096.19,946.43l13.57-14.02l13.56,14.02l-13.57,14.02L1096.19,946.43z M1096.19,980.05l13.56-14.02l13.57,14.02l-13.56,14.02
		L1096.19,980.05z M1096.19,1013.68l13.57-14.02l13.56,14.02l-13.57,14.02L1096.19,1013.68z M1096.19,1047.3l13.56-14.02
		l13.56,14.02l-13.56,14.02L1096.19,1047.3z M1126.02,1078.13l-13.57-14.02l13.56-14.02l13.57,14.02L1126.02,1078.13z
		 M1128.73,1047.3l13.57-14.02l13.57,14.02l-13.57,14.02L1128.73,1047.3z M1158.56,1078.13l-13.56-14.02l13.57-14.02l13.56,14.02
		L1158.56,1078.13z M1161.27,1047.3l13.56-14.02l13.56,14.02l-13.56,14.02L1161.27,1047.3z M1191.1,1078.13l-13.57-14.02
		l13.56-14.02l13.57,14.02L1191.1,1078.13z M1193.81,1047.3l13.57-14.02l13.57,14.02l-13.57,14.02L1193.81,1047.3z M1223.64,1078.13
		l-13.56-14.02l13.57-14.02l13.56,14.02L1223.64,1078.13z M1239.91,1061.32l-13.56-14.02l13.56-14.02l13.56,14.02L1239.91,1061.32z"
		/>
</g>
<g>
	<rect x="1013.02" y="718" fill="#8E969C" width="32.78" height="368.41"/>
	<g>
		<path fill="#1268B3" d="M170.5,728.6h930.19v-41.2c0-1.7-1.38-3.08-3.08-3.08H173.58c-1.7,0-3.08,1.38-3.08,3.08V728.6z"/>
	</g>
</g>
<g>
	<rect x="170.35" y="727.96" fill="#7DA7D9" width="337.66" height="356.05"/>
	<g>
		<rect x="187.52" y="742.51" fill="#DFE5E6" width="305.46" height="97.51"/>
		<rect x="187.52" y="856.92" fill="#DFE5E6" width="305.46" height="97.51"/>
		<rect x="187.52" y="971.34" fill="#DFE5E6" width="305.46" height="97.51"/>
	</g>
	<g>
		<path fill="#FFFFFF" d="M372.62,796.48h-67.04c-2.87,0-5.22-2.35-5.22-5.22l0,0c0-2.87,2.35-5.22,5.22-5.22h67.04
			c2.87,0,5.22,2.35,5.22,5.22l0,0C377.85,794.13,375.5,796.48,372.62,796.48z"/>
		<path fill="#FFFFFF" d="M375.24,910.1H308.2c-2.87,0-5.22-2.35-5.22-5.22l0,0c0-2.87,2.35-5.22,5.22-5.22h67.04
			c2.87,0,5.22,2.35,5.22,5.22l0,0C380.46,907.75,378.11,910.1,375.24,910.1z"/>
		<path fill="#FFFFFF" d="M375.24,1023.71H308.2c-2.87,0-5.22-2.35-5.22-5.22l0,0c0-2.87,2.35-5.22,5.22-5.22h67.04
			c2.87,0,5.22,2.35,5.22,5.22l0,0C380.46,1021.36,378.11,1023.71,375.24,1023.71z"/>
	</g>
</g>
<g>
	<g>
		<path fill="#B4DDC0" d="M998.32,564.21c15.32,15.09,14.48,40.78,14.48,40.78s-25.67,1.21-40.98-13.89
			c-15.32-15.09-14.48-40.78-14.48-40.78S983.01,549.11,998.32,564.21z"/>
		<path fill="#60C3AD" d="M1034.9,557.69c4.27,27.9-16.76,54.27-16.76,54.27s-27.96-18.87-32.23-46.77
			c-4.27-27.9,16.76-54.27,16.76-54.27S1030.63,529.79,1034.9,557.69z"/>
	</g>
	<g>
		<path fill="#B4DDC0" d="M1002.31,557.69c-4.27,27.9,16.76,54.27,16.76,54.27s27.96-18.87,32.23-46.77
			c4.27-27.9-16.76-54.27-16.76-54.27S1006.58,529.79,1002.31,557.69z"/>
		<path fill="#60C3AD" d="M1038.89,564.21c-15.32,15.09-14.48,40.78-14.48,40.78s25.67,1.21,40.98-13.89
			c15.32-15.09,14.48-40.78,14.48-40.78S1054.21,549.11,1038.89,564.21z"/>
	</g>
	<g>
		<polygon fill="#7DA7D9" points="1056.13,683.83 997.99,683.83 978.49,599.01 1075.19,599.01 		"/>
		<polygon fill="#7DA7D9" points="957.01,599.01 976.07,683.83 997.99,683.83 979.58,599.01 		"/>
		<polygon opacity="0.5" fill="#8E969C" points="957.01,599.01 976.07,683.83 997.99,683.83 979.58,599.01 		"/>
	</g>
</g>
<g>
	<g>
		<path fill="#FFFFFF" d="M582.35,325.92H198.56c-15.84,0-28.69,12.86-28.69,28.69v253.43c0,15.84,12.84,28.68,28.69,28.68h383.79
			c15.85,0,28.7-12.84,28.7-28.68V354.61C611.05,338.78,598.2,325.92,582.35,325.92L582.35,325.92z"/>
		<path opacity="0.4" fill="#DFE5E6" d="M611.05,354.61c0-15.83-12.85-28.69-28.7-28.69H198.56c-13.9,0-25.5,9.9-28.13,23.02
			c0,0,263.74,10.87,440.62,235.77V354.61z"/>
		<path fill="#BDC3C3" d="M442.56,671.21c-7.25-6.5-6.24-11.29-6.24-11.29l0.15-23.2h-92.02l0.15,23.2c0,0,1.02,4.79-6.24,11.29
			c-7.27,6.5-14.93,12.96-14.93,12.96H457.5C457.5,684.17,449.83,677.71,442.56,671.21z"/>
	</g>
	<path fill="#7DA7D9" d="M417.16,482.31c0,15.42-12.5,27.93-27.93,27.93c-15.42,0-27.93-12.5-27.93-27.93
		c0-15.42,12.5-27.93,27.93-27.93C404.65,454.38,417.16,466.89,417.16,482.31z"/>
</g>
<g>
	<g>
		<path fill="#60C3AD" d="M319.6,565.06v119.46H219.8V565.06c0-5.26,4.28-9.54,9.54-9.54h80.71
			C315.31,555.52,319.6,559.81,319.6,565.06z"/>
		<path fill="#B4DDC0" d="M321.68,591.4h-2.89v11.95h4.66c3.97,0,7.21,3.24,7.21,7.21v26.23c0,3.97-3.24,7.21-7.21,7.21h-4.66v9.94
			c0,0.69-0.14,1.34-0.2,2.01h3.09c10.57,0,19.17-8.6,19.17-19.17v-26.23C340.85,600,332.25,591.4,321.68,591.4z"/>
		<path fill="#FFFFFF" d="M310.22,631.96h-78.95c-0.72,0-1.31-0.59-1.31-1.31v-21.75c0-0.72,0.59-1.31,1.31-1.31h78.95
			c0.72,0,1.31,0.59,1.31,1.31v21.75C311.53,631.37,310.94,631.96,310.22,631.96z"/>
	</g>
</g>
<g>
	<path fill="#8E969C" d="M776.65,1081.46l135.42-0.86c8.08-0.05,14.58-6.64,14.53-14.72l0,0c-0.04-6.22-4.01-11.73-9.89-13.74
		l-67.15-22.94l-72.8,0.02L776.65,1081.46z"/>
	<path fill="#2E2C70" d="M914.8,1084.34l-138.05,1.89l-0.14-9.82l147.88-2.03l0,0C924.56,1079.81,920.23,1084.27,914.8,1084.34z"/>
</g>
<g>
	<path fill="#8E969C" d="M734.33,1081.46l-135.42-0.86c-8.08-0.05-14.58-6.64-14.53-14.72l0,0c0.04-6.22,4.01-11.73,9.89-13.74
		l67.15-22.94l72.8,0.02L734.33,1081.46z"/>
	<path fill="#2E2C70" d="M596.17,1084.34l138.05,1.89l0.14-9.82l-147.88-2.03l0,0C586.41,1079.81,590.75,1084.27,596.17,1084.34z"/>
</g>
<path fill="#8E969C" d="M935.73,684.19v-7.82c0-6.04-4.9-10.94-10.94-10.94H593.88c-6.04,0-10.94,4.9-10.94,10.94v7.82H935.73z"/>
<g>
	<rect x="385.79" y="621.91" fill="#DFE5E6" width="289.95" height="61.69"/>
	<rect x="533.12" y="621.21" fill="#FFFFFF" width="143.39" height="63.09"/>
	<g>
		<g>
			<rect x="386.05" y="630.99" fill="#BDC3C3" width="290.21" height="4.55"/>
		</g>
		<g>
			<rect x="386.05" y="643.39" fill="#BDC3C3" width="290.21" height="4.55"/>
		</g>
		<g>
			<rect x="386.05" y="655.8" fill="#BDC3C3" width="290.21" height="4.55"/>
		</g>
		<g>
			<rect x="386.05" y="668.21" fill="#BDC3C3" width="290.21" height="4.55"/>
		</g>
	</g>
</g>
<g>
	<g>
		<path fill="#FCCDB5" d="M883.88,557.14l-36.34-0.01l0.01-30.08c0-1.83,1.51-3.3,3.36-3.3l29.61,0.01c1.86,0,3.36,1.48,3.36,3.31
			L883.88,557.14z"/>
		<path fill="#1268B3" d="M883.88,548.23l0.01-21.18c0-1.83-1.51-3.31-3.36-3.31l-29.61-0.01c-1.86,0-3.36,1.48-3.36,3.3l0,8.93
			L883.88,548.23z"/>
		<path fill="#2E2C70" d="M884.87,568.92l-39.52-0.01c1.24,7.26,6.39,13.19,13.21,15.55L858.55,644c0,3.3,2.67,5.97,5.97,5.97
			c3.3,0,5.97-2.67,5.98-5.97l0.02-59.19C877.9,582.75,883.56,576.58,884.87,568.92z"/>
		<path fill="#FFFFFF" d="M886.82,567.77c0,1.57-1.4,2.84-3.13,2.84l-36.99-0.01c-1.73,0-3.13-1.27-3.13-2.85
			c0,0-0.94-11.66,0.79-11.66l41.69,0.01C887.78,556.1,886.82,567.77,886.82,567.77z"/>
	</g>
	<g>
		<rect x="824.41" y="524.38" fill="#44C8F5" width="11.96" height="145.25"/>
		<path fill="#FFFFFF" d="M836.24,571.43v-47.05h-14.1v47.08C826.67,571.45,831.44,571.44,836.24,571.43z"/>
		<rect x="824.41" y="669.63" fill="#29364A" width="8.03" height="8.58"/>
		<polygon fill="#FFFFFF" points="818.29,565.75 818.29,530.09 822.14,530.09 822.14,527.75 815.95,527.75 815.95,568.1 
			822.09,568.08 822.08,565.74 		"/>
	</g>
	<g>
		<g>
			<g>
				<g>
					<path fill="#FFFFFF" d="M887.16,603.66h-75.23c-1.17,0-2.12,1.03-2.12,2.3v76.67c0,1.27,0.94,2.3,2.12,2.3h75.23
						c1.17,0,2.12-1.03,2.12-2.3v-76.67C889.27,604.7,888.33,603.66,887.16,603.66z"/>
				</g>
			</g>
		</g>
	</g>
</g>
<g>
	<g>
		<g>
			<path fill="#60C3AD" d="M1016.23,412.79c0,0,20.11-80.12,116.05-79.13c95.94,0.99,113.13,80.16,113.13,80.16L1016.23,412.79z"/>
			<path fill="#2E2C70" d="M1132.29,333.66c3.24,0.03,6.38,0.17,9.45,0.38c0.2-0.83,0.34-1.69,0.34-2.58v-15.39
				c0-6.07-4.92-10.99-10.99-10.99c-6.07,0-10.99,4.92-10.99,10.99v15.39c0,0.88,0.13,1.73,0.33,2.56
				C1124.25,333.78,1128.18,333.62,1132.29,333.66z"/>
			<path fill="#8E969C" d="M1131.08,305.09c1.24,0,2.41,0.25,3.52,0.63V97.19h-6.24v208.28
				C1129.23,305.25,1130.13,305.09,1131.08,305.09z"/>
		</g>
	</g>
</g>
<path opacity="0.2" fill="#70737C" d="M91.22,573.26H19.23c-0.1,1.77-0.18,3.54-0.26,5.31h66.39v53.09H20.95
	c0.14,1.2,0.26,3.97,0.41,5.17h69.86V573.26z"/>
<path opacity="0.2" fill="#70737C" d="M1359.09,738.6v-56.05l-163.88,0.71v54.63L1359.09,738.6z M1200,687.35h154.28v46.46H1200
	V687.35z"/>
<g>
	<path opacity="0.2" fill="#70737C" d="M1207.82,780.59h-64.66c-2.85,0-5.16,2.31-5.16,5.16v62.54c0,2.85,2.31,5.16,5.16,5.16h64.66
		c2.85,0,5.16-2.31,5.16-5.16v-62.54C1212.99,782.9,1210.68,780.59,1207.82,780.59z M1175.49,836.45c-11.04,0-20-8.7-20-19.43
		c0-10.73,8.95-19.43,20-19.43s20,8.7,20,19.43C1195.49,827.75,1186.54,836.45,1175.49,836.45z"/>
	<path opacity="0.2" fill="#70737C" d="M1170.42,817.02c0,1.51-1.26,2.74-2.82,2.74c-1.56,0-2.82-1.23-2.82-2.74
		c0-1.51,1.26-2.74,2.82-2.74C1169.16,814.28,1170.42,815.51,1170.42,817.02z"/>
	<path opacity="0.2" fill="#70737C" d="M1185.27,817.02c0,1.51-1.26,2.74-2.82,2.74c-1.56,0-2.82-1.23-2.82-2.74
		c0-1.51,1.26-2.74,2.82-2.74C1184.01,814.28,1185.27,815.51,1185.27,817.02z"/>
</g>
</svg>
